<svg xmlns="http://www.w3.org/2000/svg" viewBox="0 0 68 85" x="0px" y="0px">
   <path fill="#fff" fill-rule="evenodd" d="M178,578 L200,578 C201.104569,578 202,578.895431 202,580 L202,602 C202,603.104569 201.104569,604 200,604 L178,604 C176.895431,604 176,603.104569 176,602 L176,580 C176,578.895431 176.895431,578 178,578 Z M183,582 L180,582 L180,600 L198,600 L198,582 L195,582 L195,590 C195,591.486764 193.435375,592.453755 192.105573,591.788854 L189,590.236068 L185.894427,591.788854 C184.564625,592.453755 183,591.486764 183,590 L183,582 Z M187,586.763932 L188.105573,586.211146 C188.668628,585.929618 189.331372,585.929618 189.894427,586.211146 L191,586.763932 L191,582 L187,582 L187,586.763932 Z M220,568 C221.104569,568 222,568.895431 222,570 C222,571.104569 221.104569,572 220,572 L216.004174,572 C212.691378,572 210,574.692063 210,578 C210,581.314155 212.684539,584 215.996567,584 L232.020095,584 C237.538486,584 242.016662,588.48358 242.016662,594.000005 C242.016662,599.520911 237.532284,604.000011 232.012178,604.000011 L210,604.000011 C208.895431,604.000011 208,603.10458 208,602.000011 C208,600.895441 208.895431,600.000011 210,600.000011 L232.012178,600.000011 C235.324199,600.000011 238.016662,597.310717 238.016662,594.000005 C238.016662,590.69164 235.328266,588 232.020095,588 L215.996567,588 C210.474965,588 206,583.522858 206,578 C206,572.483152 210.482011,568 216.004174,568 L220,568 Z M231.231091,570.576203 C230.507624,571.141266 229.492376,571.141266 228.768909,570.576203 C228.657424,570.489127 228.463739,570.33267 228.19947,570.111119 C227.767836,569.749257 227.289177,569.331091 226.775078,568.860813 C225.309549,567.520201 223.844741,566.023557 222.473027,564.401928 C218.446125,559.641362 216,554.787086 216,550 C216,542.268014 222.268014,536 230,536 C237.731986,536 244,542.268014 244,550 C244,554.787086 241.553875,559.641362 237.526973,564.401928 C236.155259,566.023557 234.690451,567.520201 233.224922,568.860813 C232.710823,569.331091 232.232164,569.749257 231.80053,570.111119 C231.536261,570.33267 231.342576,570.489127 231.231091,570.576203 Z M230.525078,565.909398 C231.872049,564.67724 233.219741,563.300257 234.473027,561.818634 C237.946125,557.712769 240,553.636904 240,550 C240,544.477153 235.522847,540 230,540 C224.477153,540 220,544.477153 220,550 C220,553.636904 222.053875,557.712769 225.526973,561.818634 C226.780259,563.300257 228.127951,564.67724 229.474922,565.909398 C229.655301,566.074403 229.83055,566.232079 230,566.38216 C230.16945,566.232079 230.344699,566.074403 230.525078,565.909398 Z M230,556 C226.686292,556 224,553.313708 224,550 C224,546.686292 226.686292,544 230,544 C233.313708,544 236,546.686292 236,550 C236,553.313708 233.313708,556 230,556 Z M230,552 C231.104569,552 232,551.104569 232,550 C232,548.895431 231.104569,548 230,548 C228.895431,548 228,548.895431 228,550 C228,551.104569 228.895431,552 230,552 Z" transform="translate(-176 -536)"/>
</svg>