<svg xmlns="http://www.w3.org/2000/svg" viewBox="0 0 68 85" x="0px" y="0px">
   <path fill="#fff" fill-rule="evenodd" d="M216.579613,954 L179.991831,954 C177.787704,954 176,952.205243 176,949.99791 L176,900.00209 C176,897.788439 177.791003,896 180.00209,896 L229.99791,896 C232.209264,896 234,897.784114 234,899.991832 L234,936.579628 C239.783209,938.300459 244,943.657084 244,950 C244,957.732452 237.732978,964 230,964 C223.657445,964 218.300496,959.78347 216.579613,954 L216.579613,954 Z M195,899.999962 C186.598849,899.999987 180.00209,900 180.00209,900 C179.99886,900 180,949.99791 180,949.99791 C180,949.999622 216,950 216,950 C216,942.267548 222.267022,936 230,936 L230,899.999718 C229.999825,899.999785 223.402036,899.999841 215,899.999884 L215,918 C215,919.486764 213.435375,920.453755 212.105573,919.788854 L205,916.236068 L197.894427,919.788854 C196.564625,920.453755 195,919.486764 195,918 L195,899.999962 L195,899.999962 Z M220,950 C220,955.523764 224.476612,960 230,960 C235.523764,960 240,955.523388 240,950 C240,944.476236 235.523388,940 230,940 C224.476236,940 220,944.476612 220,950 Z M199,914.763932 L204.105573,912.211146 C204.668628,911.929618 205.331372,911.929618 205.894427,912.211146 L211,914.763932 L211,900 L199,900 L199,914.763932 Z M227.414214,948.585786 L229,950.171573 L232.585786,946.585786 C233.366835,945.804738 234.633165,945.804738 235.414214,946.585786 C236.195262,947.366835 236.195262,948.633165 235.414214,949.414214 L230.414214,954.414214 C229.633165,955.195262 228.366835,955.195262 227.585786,954.414214 L224.585786,951.414214 C223.804738,950.633165 223.804738,949.366835 224.585786,948.585786 C225.366835,947.804738 226.633165,947.804738 227.414214,948.585786 Z" transform="translate(-176 -896)"/>
</svg>