<svg xmlns="http://www.w3.org/2000/svg" viewBox="0 0 68 50" x="0px" y="0px">
   <path fill="#fff" d="M537.997292,558 C536.892722,558 535.997292,557.104569 535.997292,556 C535.997292,554.895431 536.892722,554 537.997292,554 L556.002708,554 C557.107278,554 558.002708,554.895431 558.002708,556 C558.002708,557.104569 557.107278,558 556.002708,558 L537.997292,558 Z M545.997292,586 C544.892722,586 543.997292,585.104569 543.997292,584 C543.997292,582.895431 544.892722,582 545.997292,582 L556.002708,582 C557.107278,582 558.002708,582.895431 558.002708,584 C558.002708,585.104569 557.107278,586 556.002708,586 L545.997292,586 Z M541.997292,572 C540.892722,572 539.997292,571.104569 539.997292,570 C539.997292,568.895431 540.892722,568 541.997292,568 L556.002708,568 C557.107278,568 558.002708,568.895431 558.002708,570 C558.002708,571.104569 557.107278,572 556.002708,572 L541.997292,572 Z M564,570 C564,558.953588 572.952837,550 584,550 C595.046412,550 604,558.952837 604,570 C604,581.046412 595.047163,590 584,590 C572.953588,590 564,581.047163 564,570 Z M568,570 C568,578.837949 575.162651,586 584,586 C592.837949,586 600,578.837349 600,570 C600,561.162051 592.837349,554 584,554 C575.162051,554 568,561.162651 568,570 Z M586,563 L586,570.171573 L590.414214,574.585786 C591.195262,575.366835 591.195262,576.633165 590.414214,577.414214 C589.633165,578.195262 588.366835,578.195262 587.585786,577.414214 L582.585786,572.414214 C582.210714,572.039141 582,571.530433 582,571 L582,563 C582,561.895431 582.895431,561 584,561 C585.104569,561 586,561.895431 586,563 Z" transform="translate(-536 -550)"/>
</svg>