<svg xmlns="http://www.w3.org/2000/svg" xmlns:xlink="http://www.w3.org/1999/xlink" version="1.1" x="0px" y="0px" viewBox="0 0 100 125" style="enable-background:new 0 0 100 100;" xml:space="preserve">
   <style type="text/css">
      .st0{fill:none;stroke:#A6B5DC;stroke-width:0.1;stroke-miterlimit:10;}
   </style>
   <path fill="#fff" d="M5.5,52.6l4.3,5.1c0.8,0.9,2.2,1.1,3.1,0.3l34.5-28.9c1.4-1.2,3.7-1.2,5.1,0L87,58c0.9,0.8,2.3,0.7,3.1-0.3l4.3-5.1  c0.8-0.9,0.7-2.3-0.3-3.1L52.6,14.5c-1.4-1.2-3.7-1.2-5.1,0L5.8,49.5C4.9,50.2,4.7,51.7,5.5,52.6z"/>
   <path fill="#fff" d="M5.5,80.5l4.3,5.1c0.8,0.9,2.2,1.1,3.1,0.3l34.5-28.9c1.4-1.2,3.7-1.2,5.1,0L87,85.9c0.9,0.8,2.3,0.7,3.1-0.3l4.3-5.1  c0.8-0.9,0.7-2.3-0.3-3.1L52.6,42.4c-1.4-1.2-3.7-1.2-5.1,0L5.8,77.3C4.9,78.1,4.7,79.5,5.5,80.5z"/>
</svg>